<svg xmlns="http://www.w3.org/2000/svg" width="13.518" height="27.75" viewBox="34.789 -4.709 13.518 27.75" enable-background="new 34.789 -4.709 13.518 27.75"><path d="M44.32 23.041h-6.816v-12.904h-2.715v-6.374h2.629c-.202-2.887.298-5 1.519-6.444 1.039-1.229 2.583-1.911 4.588-2.026l4.782-.001v6.15h-3.755c-.166.315-.251 1.093-.252 2.321h3.978v6.375h-3.958v12.903zm-5.316-1.5h3.816v-12.904h3.957v-3.374h-3.953l-.016-.734c-.044-2.04.002-3.784 1.007-4.46l.19-.127h2.801v-3.15h-3.239c-1.557.091-2.711.581-3.485 1.496-1.041 1.231-1.41 3.298-1.099 6.144l.092.832h-2.786v3.375h2.715v12.902z"/></svg>