<svg viewBox="0 0.002 190.4 37.598" xmlns="http://www.w3.org/2000/svg" enable-background="new 0 0 33.3 37.6"><style type="text/css">.st0 { fill: #FDC305; } .st1 { fill: #F06351; }</style><path class="st0" d="M6.1 20.7l.1-2.3c6.7-.9 13.4-1.4 20.2-1.3 0 .6 0 1.2-.1 1.8 0 0 2.9-1.3 6-1.8-2.4-6.3-8.5-10.8-15.6-10.8-8.3 0-15.2 6.1-16.5 14.1 2.2.1 5.9.3 5.9.3zM27.2 24.2c-1.2 1.3-1.4 1.2-1.4 3.5v9.2c4.5-3 7.4-8.1 7.4-13.9 0-1.1-.1-2.1-.3-3.1-1.7 1.1-4.7 3.2-5.7 4.3zM6.4 25.7s-3.8-1.4-5.2-1.8l-1.2-.3c.2 6 3.7 11.3 8.7 14l-2.3-11.9z"/><path class="st1" d="M26.3 17.1c.1-8.5-1.4-16.5-1.4-16.5s-.2-1.2-.9-.2c-.7 1.1-1.2 3.9-1.2 3.9-7.4-.4-12.8.3-12.8.3-.8-2.6-2.1-3.8-2.8-3.6-.7.3-.7 3.4-.7 3.4l-.4 14.1c6.7-1 13.5-1.4 20.2-1.4z"/><path d="M12.4 14c0-.1 1 .7 1.4.9.4.2.6.4.6.6 0 .2-.3.3-.6.3s-.9-.1-1-.3h1.2c.1.1-1.3-1-1.6-1.5zM19.9 14.1s-1 1.3-1.1 1.3c0 .1-.2.3.2.3s1.1-.2 1.2-.3c.1-.1.1-.2-.1-.2s-.7 0-1 .1l.8-1.2zM16.8 20.2s.8-.4 1.1-1c.3-.7 0-.9-.4-1-.5-.1-1.3 0-1.7.3-.4.4-.3.7-.1 1 .2.2.8.6 1.1.7z"/><path class="st1" d="M16.3 21.5s-.2.4-.5.6c-.2.2-.6.4-1 .4-.6 0-1.1-.2-1.5-.4-.2-.1-.4-.3-.5-.4-.2-.2-.4-.3-.4-.3s.7 4.1 2.6 4.7c1.8.6 2.1-.7 2.2-1.1 0-.3 0-2.1-.8-3.2.1-.4 0-.2-.1-.3z"/><path d="M14.7 22.6c-1.3 0-2.3-1.4-2.3-1.4v-.2h.2s1 1.3 2.1 1.3c.6 0 1.1-.3 1.6-1l.1-.2.1.2s.4.8 1 .8c.5 0 1.1-.4 1.6-1.3 0-.1.1-.1.2 0 .1 0 .1.1 0 .2-.6 1-1.3 1.4-1.9 1.4-.6 0-.9-.5-1.1-.8-.4.7-1 1-1.6 1z"/><path class="st1" d="M26.2 18.9s-2.5 2.2-5.1 5.2l-5.2 4.9c-.2-.5-1.6-1.5-1.6-1.5s-3.1-2.1-5.2-3.8c-1.2-1-2.3-2.2-3.1-3-.3 0-1.1-.1-2-.1 4.7 7 12 8.8 12 8.8.9-.1 3.3-1.9 5.1-3.3 1.8-1.4 4.8-4.5 5.9-5.9.6-.7.9-1.4 1.1-2-1.1.4-1.9.7-1.9.7z"/><g fill="#111"><path class="st0" d="M91.2 26.8c-.8-1-1.2-2.5-1.2-4.4v-6.3c0-1.9.4-3.4 1.2-4.4.8-1 2.2-1.5 4.2-1.5 1.9 0 3.2.4 4 1.3.8.9 1.2 2.1 1.2 3.8v1.5h-4v-1.8c0-.7-.1-1.2-.2-1.6-.1-.3-.5-.5-1-.5s-1 .2-1.1.6c-.2.4-.3.9-.3 1.6v8.3c0 .7.1 1.2.3 1.6.2.4.5.6 1.1.6.5 0 .9-.2 1-.6.2-.4.2-.9.2-1.6v-1.8h3.9v1.5c0 1.6-.4 2.9-1.2 3.9-.8.9-2.1 1.4-4 1.4-1.9-.1-3.3-.6-4.1-1.6zM105.2 10.4h4.5l3.3 17.6h-3.6l-.6-3.7h-2.6l-.6 3.7h-3.7l3.3-17.6zm3.2 11.6l-.9-6.9-.9 6.9h1.8zM115.8 13.3h-2.7v-2.9h9.3v2.9h-2.7v14.7h-4v-14.7zM129.5 10.4h6.9v1.8h-4.4v5.8h3.6v1.7h-3.6v6.4h4.5v1.8h-7v-17.5zM138.5 10.4h1.7l5.1 11.7v-11.7h2.1v17.6h-1.6l-5.1-12v12h-2.1v-17.6zM149.8 10.4h6.9v1.8h-4.4v5.8h3.6v1.7h-3.6v6.4h4.5v1.8h-7v-17.5zM158.8 10.4h3.6c1.8 0 3.1.4 4 1.1s1.3 1.9 1.3 3.6c0 2.3-.7 3.6-2.2 4.1l2.5 8.8h-2.4l-2.3-8.3h-1.9v8.3h-2.5v-17.6zm3.4 7.6c1.1 0 1.8-.2 2.3-.6.5-.4.7-1.2.7-2.3 0-.7-.1-1.3-.2-1.7s-.4-.7-.9-.9c-.4-.2-1-.3-1.7-.3h-1.1v5.8h.9zM170.8 26.7c-.7-1-1.1-2.5-1.1-4.5v-5.8c0-1.4.1-2.5.4-3.4.3-.9.8-1.5 1.5-2s1.7-.7 2.9-.7c1.6 0 2.8.4 3.6 1.2.7.8 1.1 2.1 1.1 3.9v.7h-2.3v-.6c0-.8-.1-1.5-.2-1.9-.1-.5-.3-.8-.7-1-.3-.3-.8-.4-1.4-.4-.7 0-1.2.2-1.5.5-.3.3-.6.7-.7 1.2-.1.5-.1 1.2-.1 2.1v6.5c0 1.3.2 2.3.5 2.9.3.6 1 .9 1.9.9.9 0 1.6-.3 1.9-1 .3-.6.5-1.7.5-3.1v-1.2h-2.3v-1.7h4.5v8.7h-1.6l-.2-2c-.6 1.5-1.6 2.2-3.2 2.2s-2.8-.5-3.5-1.5zM184.3 21.8l-3.9-11.4h2.3l2.7 8.5 2.7-8.5h2.3l-3.8 11.4v6.2h-2.4v-6.2z"/></g></svg>