<svg xmlns="http://www.w3.org/2000/svg" xmlns:xlink="http://www.w3.org/1999/xlink">
<symbol id="icon-fb" width="13.518" height="27.75" viewBox="34.789 -4.709 13.518 27.75" enable-background="new 34.789 -4.709 13.518 27.75"><path d="M44.32 23.041h-6.816v-12.904h-2.715v-6.374h2.629c-.202-2.887.298-5 1.519-6.444 1.039-1.229 2.583-1.911 4.588-2.026l4.782-.001v6.15h-3.755c-.166.315-.251 1.093-.252 2.321h3.978v6.375h-3.958v12.903zm-5.316-1.5h3.816v-12.904h3.957v-3.374h-3.953l-.016-.734c-.044-2.04.002-3.784 1.007-4.46l.19-.127h2.801v-3.15h-3.239c-1.557.091-2.711.581-3.485 1.496-1.041 1.231-1.41 3.298-1.099 6.144l.092.832h-2.786v3.375h2.715v12.902z"/></symbol>
<symbol id="icon-insta" width="23" height="23" viewBox="-3 -3 23 23" enable-background="new -3 -3 23 23"><path d="M14.002-1.501c2.48 0 4.498 2.02 4.498 4.501v11c0 2.481-2.018 4.5-4.498 4.5h-10.992c-2.48 0-4.498-2.019-4.498-4.5v-11c0-2.481 2.018-4.5 4.498-4.5h10.992m0-1.5h-10.992c-3.3 0-5.997 2.699-5.997 6v11.001c0 3.298 2.697 5.999 5.997 5.999h10.995c3.296 0 5.995-2.701 5.995-6.001v-10.999c0-3.301-2.699-6-5.998-6zM8.506 4.078c2.44 0 4.429 1.985 4.429 4.428 0 2.44-1.989 4.43-4.429 4.43-2.443 0-4.428-1.989-4.428-4.43 0-2.443 1.985-4.428 4.428-4.428m0-1.5c-3.273 0-5.928 2.654-5.928 5.928s2.654 5.927 5.928 5.927 5.926-2.653 5.926-5.927-2.652-5.928-5.926-5.928z"/><circle cx="14.646" cy="2.379" r="1.341"/></symbol>
<symbol id="icon-email" viewBox="0 0 17 13" enable-background="new 0 0 17 13"><path d="M15.6 11.6h-14.2v-5.8h-1.4v7.2h17v-7.2h-1.4v5.8zm-15.6-11.6v2.3l8.5 7.1 8.5-7.1v-2.3h-17zm15.6 1.6l-7.1 5.9-7.1-5.9v-.2h14.2v.2z"/></symbol>
<symbol id="icon-phone" viewBox="0 0 20 20" enable-background="new 0 0 20 20"><path d="M17.9 9.4h-8.5v1.2h8.5l-2.1 2.1.9.9 3.1-3.1c.2-.2.2-.6 0-.9l-3.1-3.1-.9.9 2.1 2zm-9.8 10v-6.2c0-.3-.3-.6-.6-.6h-4.4c0 .7.6 1.2 1.2 1.2h2.5v5h-3.7c-1 .1-1.8-.7-1.9-1.7v-14c0-1 .8-1.8 1.7-1.8h3.9v5h-2.4c-.7 0-1.2.6-1.2 1.2h4.4c.3 0 .6-.3.6-.6v-6.3c-.1-.3-.4-.6-.7-.6h-4.4c-1.6-.1-3 1.2-3.1 2.9v13.9c-.1 1.7 1.2 3.1 2.9 3.1h4.6c.3.1.6-.2.6-.5z"/></symbol>
<symbol id="icon-vk" width="30.004" height="15.761" viewBox="3.007 11.628 30.004 15.761" enable-background="new 3.007 11.628 30.004 15.761"><path d="M26.945 27.388c-.386 0-1.17-.082-2.075-.632-.642-.385-1.223-.968-1.784-1.532-.438-.44-1.171-1.177-1.447-1.177-.268.075-.481.921-.476 1.569.004.113-.001.774-.468 1.213-.425.4-1.088.485-1.216.498l-1.926.007c-.967 0-4.358-.218-7.429-3.021-3.674-3.358-6.835-9.798-6.968-10.07-.197-.462-.248-1.066.152-1.482.392-.413 1.081-.472 1.359-.479l4.083-.024.115.008c.091.014.567.095.957.349.388.247.59.651.626.73.01.021.649 1.432 1.475 2.684 1.312 1.99 1.896 2.455 2.103 2.562.188-.417.277-1.7.187-2.871.001-.493-.101-1.098-.252-1.278-.112-.134-.426-.253-.778-.294l-.722-.691c-.096-.658.635-1.226 1.149-1.446.737-.316 1.792-.382 3.147-.382l.71.005c1.235.012 1.622.081 2.149.191 1.702.361 1.64 1.729 1.567 3.312-.021.464-.046 1.001-.046 1.621l-.011.479c-.012.38-.032 1.038.093 1.304.219-.145.852-.665 2.072-2.483.783-1.165 1.4-2.539 1.517-2.803l.001-.001c.182-.43.608-.941 1.613-.946l4.274-.024.377-.016c.98 0 1.597.287 1.832.854.269.65.169 1.657-2.354 4.605-.37.432-.697.804-.982 1.127-.598.678-1.216 1.379-1.237 1.595.053.169.662.665 1.252 1.145 1.53 1.247 2.528 2.264 3.033 3.073.522.759.429 1.33.258 1.677-.424.864-1.638.973-1.877.985l-3.79.047-.263.012zm-5.307-4.84c.899 0 1.682.786 2.511 1.618.497.5 1.011 1.016 1.496 1.307.727.44 1.316.421 1.398.412l.103-.009 3.805-.047c.171-.012.411-.073.536-.136l-.098-.167c-.449-.718-1.388-1.659-2.686-2.718-1.184-.963-1.801-1.465-1.865-2.244-.066-.805.493-1.439 1.607-2.703.28-.318.604-.685.967-1.109 1.559-1.821 1.957-2.64 2.058-2.956-.17-.029-.648-.021-.678-.018l-4.361.028c-.191.001-.249.035-.249.036-.176.414-.812 1.812-1.644 3.05-1.895 2.82-2.785 3.2-3.407 3.201-.204 0-.396-.05-.569-.148-1.003-.569-.963-1.834-.934-2.757l.01-.431c0-.646.025-1.207.048-1.689.076-1.68.016-1.692-.379-1.776-.409-.086-.705-.147-1.856-.159l-.693-.005c-.624 0-1.343.014-1.906.098.092.074.18.157.259.251.588.704.604 1.951.601 2.194.13 1.646.061 3.796-1.018 4.313-.191.092-.392.137-.597.137-.926 0-1.854-.885-3.425-3.267-.895-1.354-1.56-2.824-1.587-2.887l-.075-.094c-.083-.054-.233-.097-.32-.116l-4.001.024-.07.005c.591 1.189 3.426 6.592 6.519 9.419 2.74 2.502 5.826 2.629 6.417 2.629l1.851-.003c.046-.01.218-.062.269-.1l-.01-.097c-.003-.265.012-2.595 1.578-3.034.126-.034.259-.052.395-.052z"/></symbol>
<symbol id="logo-academy" width="60" height="80" viewBox="0 0 60 60"><path d="M30.2 5h-.2l-19.7 2.1v36.2l19.7 11.7 19.7-11.7v-36.2l-19.5-2.1zm17 36.8l-17.2 10.2-17.2-10.2v-14.8l17.1 10.2v1.8l-11.7-7v1.8l11.8 7.1v1.9l-11.8-7v1.8l11.8 7 11.9-7.1v-7.6l5.3-3.2v15.1zm-.1-17l-4.7 2.8-2.2 1.3-10.3-6.1v1.8l8.8 5.3h-.1l-.2.1-1.3.7-7.3-4.3v1.8l5.8 3.4-1.4.9-4.3-2.6v1.8l2.9 1.7-2.9 1.7-17-10.1 17-10.2 17.2 10zm.1-1.8l-17.3-10.2-17.1 10.2v-13.6l17.2-1.8 17.2 1.8v13.6z"/></symbol>
</svg>
